<svg width="63" height="65" viewBox="0 0 63 65" fill="none" xmlns="http://www.w3.org/2000/svg">
<path d="M39.4791 3.64583C33.2916 3.64583 28.2708 8.66666 28.2708 14.8542C28.2708 21.0417 33.2916 26.0625 39.4791 26.0625C45.6666 26.0625 50.6875 21.0417 50.6875 14.8542C50.6875 8.66666 45.6666 3.64583 39.4791 3.64583Z" fill="white"/>
<path opacity="0.4" d="M20.25 27.0625C18.8785 27.0629 17.5379 27.47 16.3977 28.2322C15.2575 28.9944 14.3688 30.0776 13.8442 31.3448C13.3195 32.612 13.1823 34.0063 13.45 35.3515C13.7177 36.6966 14.3782 37.9322 15.348 38.902C16.3178 39.8718 17.5534 40.5323 18.8985 40.8C20.2437 41.0676 21.638 40.9305 22.9052 40.4058C24.1724 39.8811 25.2556 38.9925 26.0178 37.8523C26.78 36.7121 27.1871 35.3715 27.1875 34C27.1875 30.1667 24.0625 27.0625 20.25 27.0625ZM41.625 34.5417C38.3958 34.5417 35.7708 37.1667 35.7708 40.3958C35.7708 43.625 38.3958 46.25 41.625 46.25C44.8542 46.25 47.4792 43.625 47.4792 40.3958C47.4792 37.1667 44.8542 34.5417 41.625 34.5417Z" fill="white"/>
<path d="M4.3 60.71C4.3 60.71 4.29 60.7533 4.27 60.84C4.25 60.9267 4.20667 61.0333 4.14 61.16C4.07333 61.2867 3.97 61.4167 3.83 61.55C3.69667 61.6767 3.51333 61.7833 3.28 61.87C3.04667 61.9567 2.75333 62 2.4 62C1.97333 62 1.62333 61.9333 1.35 61.8C1.08333 61.6667 0.873333 61.4867 0.72 61.26C0.566667 61.0267 0.456667 60.77 0.39 60.49C0.323333 60.2033 0.283333 59.9067 0.27 59.6C0.263333 59.2933 0.266667 58.9967 0.28 58.71C0.293333 58.4167 0.303333 58.1533 0.31 57.92C0.316667 57.5667 0.38 57.2833 0.5 57.07C0.626667 56.85 0.78 56.6833 0.96 56.57C1.14667 56.45 1.34 56.3667 1.54 56.32C1.74 56.2733 1.92 56.2467 2.08 56.24C2.40667 56.22 2.73667 56.2767 3.07 56.41C3.40333 56.5433 3.67333 56.79 3.88 57.15C3.98667 57.33 4.01667 57.4733 3.97 57.58C3.93 57.68 3.85333 57.7533 3.74 57.8C3.63333 57.8467 3.52333 57.8767 3.41 57.89C3.29667 57.9033 3.22333 57.91 3.19 57.91C2.97667 57.91 2.81333 57.88 2.7 57.82C2.59333 57.76 2.51667 57.69 2.47 57.61C2.43 57.5233 2.41 57.4467 2.41 57.38C2.41 57.3267 2.39333 57.2733 2.36 57.22C2.33333 57.16 2.29667 57.12 2.25 57.1C2.21 57.08 2.16667 57.1033 2.12 57.17C2.08 57.2367 2.04667 57.3667 2.02 57.56C2 57.7133 1.98667 57.9167 1.98 58.17C1.98 58.4167 1.98333 58.68 1.99 58.96C1.99667 59.2333 2.00333 59.4933 2.01 59.74C2.02333 59.9867 2.03333 60.19 2.04 60.35C2.05333 60.5033 2.06 60.58 2.06 60.58C2.06 60.58 2.06667 60.63 2.08 60.73C2.1 60.83 2.13667 60.93 2.19 61.03C2.25 61.13 2.33667 61.1833 2.45 61.19C2.53667 61.1967 2.60333 61.17 2.65 61.11C2.70333 61.0433 2.74 60.97 2.76 60.89C2.78667 60.8033 2.80333 60.73 2.81 60.67C2.81667 60.6033 2.82 60.57 2.82 60.57C2.82 60.57 2.81667 60.5433 2.81 60.49C2.81 60.4367 2.82667 60.3767 2.86 60.31C2.89333 60.2367 2.96333 60.1767 3.07 60.13C3.17667 60.0767 3.34 60.0533 3.56 60.06C3.78 60.0667 3.94333 60.1033 4.05 60.17C4.15667 60.23 4.22667 60.3033 4.26 60.39C4.29333 60.47 4.30667 60.5433 4.3 60.61C4.3 60.6767 4.3 60.71 4.3 60.71ZM4.68313 58.54C4.68313 58.54 4.68313 58.51 4.68313 58.45C4.68979 58.39 4.71313 58.3233 4.75313 58.25C4.79313 58.17 4.86646 58.1 4.97313 58.04C5.08646 57.98 5.24646 57.95 5.45313 57.95C5.70646 57.95 5.88646 57.9867 5.99313 58.06C6.10646 58.1267 6.17313 58.21 6.19313 58.31C6.21979 58.4033 6.22646 58.4967 6.21313 58.59C6.19979 58.6767 6.19313 58.7367 6.19313 58.77C6.19313 58.7967 6.19313 58.8967 6.19313 59.07C6.19979 59.2367 6.21313 59.4367 6.23313 59.67C6.25313 59.9033 6.28646 60.1333 6.33313 60.36C6.37979 60.5867 6.44646 60.7767 6.53313 60.93C6.61979 61.0767 6.73313 61.1467 6.87313 61.14C7.01313 61.1333 7.10646 61.06 7.15313 60.92C7.19979 60.78 7.21646 60.6067 7.20313 60.4C7.19646 60.1933 7.17313 59.9867 7.13313 59.78C7.09313 59.5733 7.05313 59.3967 7.01313 59.25C6.97313 59.0967 6.95312 59.01 6.95312 58.99C6.95312 58.9633 6.94313 58.9167 6.92313 58.85C6.90979 58.7767 6.90979 58.6967 6.92313 58.61C6.94313 58.5233 6.99979 58.4433 7.09312 58.37C7.18646 58.2967 7.33979 58.25 7.55313 58.23C7.76646 58.21 7.93313 58.2233 8.05313 58.27C8.17979 58.31 8.26979 58.3633 8.32313 58.43C8.38313 58.4967 8.41979 58.56 8.43313 58.62C8.44646 58.6733 8.45313 58.7 8.45313 58.7C8.45313 58.7 8.47646 58.78 8.52313 58.94C8.56979 59.1 8.61313 59.3067 8.65313 59.56C8.69313 59.8067 8.70646 60.07 8.69313 60.35C8.68646 60.63 8.62646 60.8967 8.51313 61.15C8.40646 61.3967 8.22646 61.6 7.97313 61.76C7.72646 61.92 7.37979 62 6.93313 62C6.48646 62 6.11979 61.9167 5.83313 61.75C5.54646 61.5833 5.31979 61.37 5.15313 61.11C4.99313 60.8433 4.87646 60.5633 4.80313 60.27C4.72979 59.9767 4.68646 59.7 4.67313 59.44C4.65979 59.1733 4.65646 58.9567 4.66313 58.79C4.67646 58.6233 4.68313 58.54 4.68313 58.54ZM11.3163 60.4C10.8163 60.3867 10.4263 60.3367 10.1463 60.25C9.86625 60.1633 9.66625 60.06 9.54625 59.94C9.43292 59.82 9.36292 59.7033 9.33625 59.59C9.30958 59.47 9.29625 59.3767 9.29625 59.31C9.29625 59.2433 9.30625 59.14 9.32625 59C9.34625 58.86 9.40958 58.7133 9.51625 58.56C9.62292 58.4067 9.80625 58.2733 10.0663 58.16C10.3329 58.0467 10.7096 57.9833 11.1963 57.97C11.7296 57.9567 12.1396 57.9867 12.4263 58.06C12.7129 58.1333 12.9163 58.22 13.0363 58.32C13.1629 58.42 13.2396 58.51 13.2663 58.59C13.2929 58.6633 13.3063 58.7 13.3063 58.7C13.3063 58.7867 13.2963 58.8767 13.2763 58.97C13.2563 59.0567 13.1963 59.13 13.0963 59.19C13.0029 59.2433 12.8396 59.2667 12.6063 59.26C12.4196 59.2533 12.2796 59.2367 12.1863 59.21C12.0929 59.1833 12.0229 59.1533 11.9763 59.12C11.9363 59.08 11.8929 59.04 11.8462 59C11.8063 58.96 11.7429 58.9267 11.6563 58.9C11.5763 58.8733 11.4463 58.8567 11.2663 58.85C11.0463 58.8433 10.8796 58.86 10.7663 58.9C10.6596 58.9333 10.5863 58.9767 10.5463 59.03C10.5129 59.0833 10.4929 59.13 10.4863 59.17C10.4863 59.2033 10.4863 59.22 10.4863 59.22C10.4863 59.22 10.4929 59.2467 10.5063 59.3C10.5263 59.3533 10.5929 59.4067 10.7063 59.46C10.8263 59.5133 11.0396 59.5433 11.3463 59.55C11.9263 59.57 12.3696 59.6267 12.6763 59.72C12.9896 59.8067 13.2096 59.91 13.3363 60.03C13.4696 60.15 13.5463 60.27 13.5663 60.39C13.5929 60.5033 13.6063 60.5933 13.6063 60.66C13.6063 60.7267 13.5829 60.83 13.5363 60.97C13.4963 61.11 13.4063 61.2567 13.2663 61.41C13.1263 61.5633 12.9096 61.6967 12.6163 61.81C12.3296 61.9233 11.9429 61.9867 11.4563 62C10.9296 62.0133 10.5196 61.9833 10.2262 61.91C9.93958 61.8367 9.73292 61.75 9.60625 61.65C9.48625 61.55 9.41292 61.4633 9.38625 61.39C9.35958 61.31 9.34625 61.27 9.34625 61.27C9.34625 61.1767 9.35625 61.0867 9.37625 61C9.40292 60.9133 9.46292 60.8433 9.55625 60.79C9.65625 60.73 9.81958 60.7033 10.0463 60.71C10.2396 60.7167 10.3796 60.7333 10.4663 60.76C10.5596 60.7867 10.6296 60.82 10.6763 60.86C10.7229 60.8933 10.7663 60.93 10.8063 60.97C10.8463 61.01 10.9096 61.0433 10.9963 61.07C11.0829 61.0967 11.2129 61.1133 11.3863 61.12C11.6063 61.1267 11.7696 61.1133 11.8763 61.08C11.9896 61.04 12.0663 60.9933 12.1063 60.94C12.1463 60.8867 12.1663 60.8433 12.1663 60.81C12.1663 60.77 12.1663 60.75 12.1663 60.75C12.1663 60.75 12.1596 60.7233 12.1463 60.67C12.1329 60.61 12.0663 60.5533 11.9463 60.5C11.8329 60.44 11.6229 60.4067 11.3163 60.4ZM14.0584 56.54C14.0517 56.3733 14.1017 56.24 14.2084 56.14C14.315 56.0333 14.5517 55.97 14.9184 55.95C15.165 55.9367 15.345 55.9667 15.4584 56.04C15.5717 56.1133 15.6417 56.19 15.6684 56.27C15.7017 56.3433 15.7184 56.38 15.7184 56.38L15.7784 57.27C15.7784 57.27 15.8317 57.27 15.9384 57.27C16.0517 57.27 16.1784 57.2833 16.3184 57.31C16.465 57.33 16.5917 57.3733 16.6984 57.44C16.8117 57.5067 16.8684 57.61 16.8684 57.75C16.8684 57.89 16.815 57.9933 16.7084 58.06C16.6017 58.1267 16.4784 58.1733 16.3384 58.2C16.1984 58.22 16.0717 58.23 15.9584 58.23C15.8517 58.23 15.7984 58.23 15.7984 58.23C15.7984 58.23 15.7984 58.3067 15.7984 58.46C15.805 58.6067 15.8084 58.8 15.8084 59.04C15.8084 59.2733 15.8117 59.5233 15.8184 59.79C15.825 60.0567 15.8284 60.3133 15.8284 60.56C15.8284 60.8 15.8284 61.0033 15.8284 61.17C15.835 61.33 15.8384 61.4233 15.8384 61.45C15.8384 61.4967 15.8217 61.5633 15.7884 61.65C15.7617 61.7367 15.685 61.8167 15.5584 61.89C15.4384 61.9633 15.2384 62 14.9584 62C14.7517 62 14.5917 61.9767 14.4784 61.93C14.365 61.8767 14.2817 61.82 14.2284 61.76C14.1817 61.6933 14.155 61.6367 14.1484 61.59C14.1417 61.5367 14.1384 61.51 14.1384 61.51L14.0584 56.54ZM19.4201 57.94C19.6667 57.92 19.8567 57.9467 19.9901 58.02C20.1234 58.0933 20.2034 58.1367 20.2301 58.15C20.2967 58.1833 20.3567 58.22 20.4101 58.26C20.4701 58.3 20.5001 58.32 20.5001 58.32C20.5001 58.32 20.5501 58.3367 20.6501 58.37C20.7501 58.4033 20.8667 58.4833 21.0001 58.61C21.1334 58.73 21.2567 58.92 21.3701 59.18C21.4834 59.44 21.5501 59.7933 21.5701 60.24C21.5834 60.54 21.5367 60.7933 21.4301 61C21.3234 61.2 21.1801 61.3667 21.0001 61.5C20.8267 61.6267 20.6367 61.7267 20.4301 61.8C20.2301 61.8667 20.0367 61.9133 19.8501 61.94C19.6701 61.9667 19.5201 61.9833 19.4001 61.99C19.2867 61.9967 19.2301 62 19.2301 62C19.2301 62 19.1634 62 19.0301 62C18.9034 62 18.7434 61.98 18.5501 61.94C18.3567 61.8933 18.1634 61.8067 17.9701 61.68C17.7834 61.5467 17.6267 61.3533 17.5001 61.1C17.3801 60.8467 17.3267 60.51 17.3401 60.09C17.3534 59.67 17.4301 59.3267 17.5701 59.06C17.7167 58.7867 17.8901 58.5733 18.0901 58.42C18.2967 58.2667 18.5001 58.1567 18.7001 58.09C18.9067 58.0233 19.0767 57.9833 19.2101 57.97C19.3501 57.95 19.4201 57.94 19.4201 57.94ZM19.4601 58.92C19.4601 58.92 19.4167 58.9733 19.3301 59.08C19.2501 59.1867 19.1667 59.3367 19.0801 59.53C19.0001 59.7233 18.9601 59.95 18.9601 60.21C18.9601 60.4633 18.9901 60.6633 19.0501 60.81C19.1101 60.9567 19.1734 61.0633 19.2401 61.13C19.3134 61.19 19.3701 61.22 19.4101 61.22C19.4501 61.22 19.5134 61.2033 19.6001 61.17C19.6934 61.13 19.7767 61.0433 19.8501 60.91C19.9234 60.7767 19.9567 60.5667 19.9501 60.28C19.9434 60.04 19.9167 59.8467 19.8701 59.7C19.8301 59.5533 19.7734 59.4233 19.7001 59.31C19.6334 59.19 19.5534 59.06 19.4601 58.92ZM23.0488 62C23.0488 62 23.0054 62 22.9188 62C22.8388 62.0067 22.7421 61.9967 22.6288 61.97C22.5221 61.9433 22.4221 61.89 22.3288 61.81C22.2421 61.7233 22.1888 61.5933 22.1688 61.42C22.1554 61.28 22.1388 61.0933 22.1188 60.86C22.1054 60.6267 22.0888 60.38 22.0688 60.12C22.0488 59.8533 22.0321 59.6033 22.0188 59.37C22.0054 59.1367 21.9921 58.9467 21.9788 58.8C21.9721 58.6467 21.9688 58.57 21.9688 58.57C21.9688 58.57 21.9654 58.54 21.9588 58.48C21.9588 58.42 21.9721 58.35 21.9988 58.27C22.0321 58.1833 22.0954 58.1067 22.1888 58.04C22.2821 57.9733 22.4288 57.9367 22.6288 57.93C22.8954 57.9167 23.0921 57.9333 23.2188 57.98C23.3454 58.0267 23.4288 58.0767 23.4688 58.13C23.5154 58.1833 23.5388 58.21 23.5388 58.21C23.5388 58.21 23.5888 58.1833 23.6888 58.13C23.7954 58.0767 23.9388 58.0267 24.1188 57.98C24.2988 57.9267 24.4988 57.9 24.7188 57.9C24.9721 57.9 25.1788 57.9267 25.3388 57.98C25.5054 58.0333 25.6288 58.0867 25.7088 58.14C25.7888 58.1933 25.8288 58.22 25.8288 58.22C26.0221 58.1 26.2188 58.03 26.4188 58.01C26.6254 57.99 26.8588 57.98 27.1188 57.98C27.1188 57.98 27.1854 57.99 27.3188 58.01C27.4521 58.0233 27.6188 58.0633 27.8188 58.13C28.0188 58.1967 28.2188 58.3067 28.4188 58.46C28.6254 58.6067 28.7988 58.8133 28.9388 59.08C29.0788 59.34 29.1521 59.6767 29.1588 60.09C29.1721 60.61 29.1588 61.0033 29.1188 61.27C29.0788 61.5367 29.0221 61.72 28.9488 61.82C28.8754 61.92 28.7854 61.9767 28.6788 61.99C28.5721 61.9967 28.4554 62 28.3288 62C28.0754 62 27.8588 61.9467 27.6788 61.84C27.5054 61.7267 27.4388 61.5567 27.4788 61.33C27.4921 61.2433 27.5021 61.1033 27.5088 60.91C27.5221 60.7167 27.5221 60.5067 27.5088 60.28C27.4954 60.0467 27.4654 59.8267 27.4188 59.62C27.3721 59.4067 27.3021 59.2333 27.2088 59.1C27.1154 58.96 26.9921 58.8933 26.8388 58.9C26.7254 58.9 26.6354 58.9467 26.5688 59.04C26.5088 59.1267 26.4654 59.2133 26.4388 59.3C26.4121 59.3867 26.3988 59.43 26.3988 59.43L26.5288 61.33C26.5288 61.33 26.5288 61.3633 26.5288 61.43C26.5354 61.4967 26.5221 61.5767 26.4888 61.67C26.4554 61.7567 26.3821 61.8333 26.2688 61.9C26.1554 61.9667 25.9788 62 25.7388 62C25.4988 62 25.3154 61.97 25.1888 61.91C25.0688 61.85 24.9854 61.78 24.9388 61.7C24.8921 61.62 24.8654 61.55 24.8588 61.49C24.8521 61.43 24.8488 61.3967 24.8488 61.39C24.8488 61.3833 24.8521 61.3167 24.8588 61.19C24.8654 61.0567 24.8688 60.89 24.8688 60.69C24.8754 60.49 24.8688 60.28 24.8488 60.06C24.8288 59.8333 24.7921 59.6233 24.7388 59.43C24.6921 59.23 24.6188 59.0767 24.5188 58.97C24.4254 58.8567 24.2988 58.81 24.1388 58.83C23.9854 58.85 23.8754 58.9 23.8088 58.98C23.7421 59.0533 23.6988 59.1233 23.6788 59.19C23.6654 59.2567 23.6588 59.29 23.6588 59.29L23.8188 61.4C23.8188 61.4 23.8188 61.43 23.8188 61.49C23.8254 61.55 23.8088 61.62 23.7688 61.7C23.7354 61.78 23.6621 61.85 23.5488 61.91C23.4421 61.97 23.2754 62 23.0488 62ZM33.242 56.6C33.2353 56.6 33.2453 56.5633 33.272 56.49C33.3053 56.41 33.3786 56.3333 33.492 56.26C33.6053 56.1867 33.792 56.1467 34.052 56.14C34.2853 56.1333 34.462 56.1633 34.582 56.23C34.702 56.29 34.782 56.35 34.822 56.41C34.8686 56.47 34.892 56.5 34.892 56.5C34.892 56.5 34.9286 56.5867 35.002 56.76C35.0753 56.9333 35.1753 57.1633 35.302 57.45C35.4286 57.73 35.5686 58.0433 35.722 58.39C35.8753 58.7367 36.0286 59.09 36.182 59.45C36.342 59.8033 36.4886 60.1367 36.622 60.45C36.762 60.7567 36.8786 61.0167 36.972 61.23C37.0653 61.4367 37.1253 61.5667 37.152 61.62C37.212 61.7467 37.2453 61.8367 37.252 61.89C37.2586 61.9433 37.2553 61.98 37.242 62C37.2353 62.0133 37.232 62.0233 37.232 62.03C37.1853 62.1233 37.092 62.2033 36.952 62.27C36.8186 62.3433 36.6553 62.3833 36.462 62.39C36.1953 62.3967 36.002 62.3667 35.882 62.3C35.762 62.24 35.682 62.1767 35.642 62.11C35.6086 62.05 35.5953 62.0233 35.602 62.03C35.602 62.03 35.5653 61.9533 35.492 61.8C35.4253 61.6467 35.3453 61.4633 35.252 61.25C35.1586 61.03 35.072 60.83 34.992 60.65C34.992 60.65 34.9453 60.65 34.852 60.65C34.7653 60.65 34.662 60.65 34.542 60.65C34.422 60.65 34.3153 60.65 34.222 60.65C34.1353 60.65 34.092 60.65 34.092 60.65C34.0653 60.7433 34.0386 60.86 34.012 61C33.9853 61.1333 33.962 61.2533 33.942 61.36C33.922 61.4667 33.912 61.52 33.912 61.52C33.912 61.52 33.8953 61.56 33.862 61.64C33.8353 61.72 33.7586 61.8 33.632 61.88C33.5053 61.96 33.2953 62 33.002 62C32.782 62 32.6153 61.9767 32.502 61.93C32.3953 61.8767 32.322 61.8167 32.282 61.75C32.2486 61.6833 32.232 61.6267 32.232 61.58C32.232 61.5267 32.232 61.5 32.232 61.5C32.2453 61.4333 32.272 61.2967 32.312 61.09C32.3586 60.8767 32.412 60.6233 32.472 60.33C32.5386 60.03 32.6053 59.7133 32.672 59.38C32.7453 59.0467 32.8153 58.7167 32.882 58.39C32.9486 58.0633 33.0086 57.7667 33.062 57.5C33.1153 57.2267 33.1586 57.01 33.192 56.85C33.2253 56.6833 33.242 56.6 33.242 56.6ZM34.292 58.18C34.2853 58.2067 34.2786 58.26 34.272 58.34L34.232 58.62C34.2186 58.7733 34.202 58.9367 34.182 59.11C34.162 59.2833 34.142 59.4467 34.122 59.6C34.1086 59.68 34.0986 59.73 34.092 59.75H34.222C34.302 59.75 34.3886 59.7467 34.482 59.74C34.5753 59.7333 34.6586 59.73 34.732 59.73C34.7053 59.6767 34.682 59.61 34.662 59.53C34.6486 59.4433 34.632 59.3633 34.612 59.29C34.572 59.1367 34.5253 58.9767 34.472 58.81C34.4253 58.6433 34.382 58.4867 34.342 58.34C34.322 58.26 34.3053 58.2067 34.292 58.18ZM38.703 62C38.703 62 38.6597 62 38.573 62C38.493 62.0067 38.3964 61.9967 38.283 61.97C38.1764 61.9433 38.0764 61.89 37.983 61.81C37.8964 61.7233 37.843 61.5933 37.823 61.42C37.8097 61.28 37.793 61.0933 37.773 60.86C37.7597 60.6267 37.743 60.38 37.723 60.12C37.703 59.8533 37.6864 59.6033 37.673 59.37C37.6597 59.1367 37.6464 58.9467 37.633 58.8C37.6264 58.6467 37.623 58.57 37.623 58.57C37.623 58.57 37.6197 58.54 37.613 58.48C37.613 58.42 37.6264 58.35 37.653 58.27C37.6864 58.1833 37.7497 58.1067 37.843 58.04C37.9364 57.9733 38.083 57.9367 38.283 57.93C38.5497 57.9167 38.7464 57.9333 38.873 57.98C38.9997 58.0267 39.083 58.0767 39.123 58.13C39.1697 58.1833 39.193 58.21 39.193 58.21C39.193 58.21 39.243 58.1833 39.343 58.13C39.4497 58.0767 39.593 58.0267 39.773 57.98C39.953 57.9267 40.153 57.9 40.373 57.9C40.6264 57.9 40.833 57.9267 40.993 57.98C41.1597 58.0333 41.283 58.0867 41.363 58.14C41.443 58.1933 41.483 58.22 41.483 58.22C41.6764 58.1 41.873 58.03 42.073 58.01C42.2797 57.99 42.513 57.98 42.773 57.98C42.773 57.98 42.8397 57.99 42.973 58.01C43.1064 58.0233 43.273 58.0633 43.473 58.13C43.673 58.1967 43.873 58.3067 44.073 58.46C44.2797 58.6067 44.453 58.8133 44.593 59.08C44.733 59.34 44.8064 59.6767 44.813 60.09C44.8264 60.61 44.813 61.0033 44.773 61.27C44.733 61.5367 44.6764 61.72 44.603 61.82C44.5297 61.92 44.4397 61.9767 44.333 61.99C44.2264 61.9967 44.1097 62 43.983 62C43.7297 62 43.513 61.9467 43.333 61.84C43.1597 61.7267 43.093 61.5567 43.133 61.33C43.1464 61.2433 43.1564 61.1033 43.163 60.91C43.1764 60.7167 43.1764 60.5067 43.163 60.28C43.1497 60.0467 43.1197 59.8267 43.073 59.62C43.0264 59.4067 42.9564 59.2333 42.863 59.1C42.7697 58.96 42.6464 58.8933 42.493 58.9C42.3797 58.9 42.2897 58.9467 42.223 59.04C42.163 59.1267 42.1197 59.2133 42.093 59.3C42.0664 59.3867 42.053 59.43 42.053 59.43L42.183 61.33C42.183 61.33 42.183 61.3633 42.183 61.43C42.1897 61.4967 42.1764 61.5767 42.143 61.67C42.1097 61.7567 42.0364 61.8333 41.923 61.9C41.8097 61.9667 41.633 62 41.393 62C41.153 62 40.9697 61.97 40.843 61.91C40.723 61.85 40.6397 61.78 40.593 61.7C40.5464 61.62 40.5197 61.55 40.513 61.49C40.5064 61.43 40.503 61.3967 40.503 61.39C40.503 61.3833 40.5064 61.3167 40.513 61.19C40.5197 61.0567 40.523 60.89 40.523 60.69C40.5297 60.49 40.523 60.28 40.503 60.06C40.483 59.8333 40.4464 59.6233 40.393 59.43C40.3464 59.23 40.273 59.0767 40.173 58.97C40.0797 58.8567 39.953 58.81 39.793 58.83C39.6397 58.85 39.5297 58.9 39.463 58.98C39.3964 59.0533 39.353 59.1233 39.333 59.19C39.3197 59.2567 39.313 59.29 39.313 59.29L39.473 61.4C39.473 61.4 39.473 61.43 39.473 61.49C39.4797 61.55 39.463 61.62 39.423 61.7C39.3897 61.78 39.3164 61.85 39.203 61.91C39.0964 61.97 38.9297 62 38.703 62ZM47.3986 57.94C47.6453 57.92 47.8353 57.9467 47.9686 58.02C48.1019 58.0933 48.1819 58.1367 48.2086 58.15C48.2753 58.1833 48.3353 58.22 48.3886 58.26C48.4486 58.3 48.4786 58.32 48.4786 58.32C48.4786 58.32 48.5286 58.3367 48.6286 58.37C48.7286 58.4033 48.8453 58.4833 48.9786 58.61C49.1119 58.73 49.2353 58.92 49.3486 59.18C49.4619 59.44 49.5286 59.7933 49.5486 60.24C49.5619 60.54 49.5153 60.7933 49.4086 61C49.3019 61.2 49.1586 61.3667 48.9786 61.5C48.8053 61.6267 48.6153 61.7267 48.4086 61.8C48.2086 61.8667 48.0153 61.9133 47.8286 61.94C47.6486 61.9667 47.4986 61.9833 47.3786 61.99C47.2653 61.9967 47.2086 62 47.2086 62C47.2086 62 47.1419 62 47.0086 62C46.8819 62 46.7219 61.98 46.5286 61.94C46.3353 61.8933 46.1419 61.8067 45.9486 61.68C45.7619 61.5467 45.6053 61.3533 45.4786 61.1C45.3586 60.8467 45.3053 60.51 45.3186 60.09C45.3319 59.67 45.4086 59.3267 45.5486 59.06C45.6953 58.7867 45.8686 58.5733 46.0686 58.42C46.2753 58.2667 46.4786 58.1567 46.6786 58.09C46.8853 58.0233 47.0553 57.9833 47.1886 57.97C47.3286 57.95 47.3986 57.94 47.3986 57.94ZM47.4386 58.92C47.4386 58.92 47.3953 58.9733 47.3086 59.08C47.2286 59.1867 47.1453 59.3367 47.0586 59.53C46.9786 59.7233 46.9386 59.95 46.9386 60.21C46.9386 60.4633 46.9686 60.6633 47.0286 60.81C47.0886 60.9567 47.1519 61.0633 47.2186 61.13C47.2919 61.19 47.3486 61.22 47.3886 61.22C47.4286 61.22 47.4919 61.2033 47.5786 61.17C47.6719 61.13 47.7553 61.0433 47.8286 60.91C47.9019 60.7767 47.9353 60.5667 47.9286 60.28C47.9219 60.04 47.8953 59.8467 47.8486 59.7C47.8086 59.5533 47.7519 59.4233 47.6786 59.31C47.6119 59.19 47.5319 59.06 47.4386 58.92ZM49.9273 58.54C49.9273 58.54 49.9273 58.51 49.9273 58.45C49.9339 58.39 49.9573 58.3233 49.9973 58.25C50.0373 58.17 50.1106 58.1 50.2173 58.04C50.3306 57.98 50.4906 57.95 50.6973 57.95C50.9506 57.95 51.1306 57.9867 51.2373 58.06C51.3506 58.1267 51.4173 58.21 51.4373 58.31C51.4639 58.4033 51.4706 58.4967 51.4573 58.59C51.4439 58.6767 51.4373 58.7367 51.4373 58.77C51.4373 58.7967 51.4373 58.8967 51.4373 59.07C51.4439 59.2367 51.4573 59.4367 51.4773 59.67C51.4973 59.9033 51.5306 60.1333 51.5773 60.36C51.6239 60.5867 51.6906 60.7767 51.7773 60.93C51.8639 61.0767 51.9773 61.1467 52.1173 61.14C52.2573 61.1333 52.3506 61.06 52.3973 60.92C52.4439 60.78 52.4606 60.6067 52.4473 60.4C52.4406 60.1933 52.4173 59.9867 52.3773 59.78C52.3373 59.5733 52.2973 59.3967 52.2573 59.25C52.2173 59.0967 52.1973 59.01 52.1973 58.99C52.1973 58.9633 52.1873 58.9167 52.1673 58.85C52.1539 58.7767 52.1539 58.6967 52.1673 58.61C52.1873 58.5233 52.2439 58.4433 52.3373 58.37C52.4306 58.2967 52.5839 58.25 52.7973 58.23C53.0106 58.21 53.1773 58.2233 53.2973 58.27C53.4239 58.31 53.5139 58.3633 53.5673 58.43C53.6273 58.4967 53.6639 58.56 53.6773 58.62C53.6906 58.6733 53.6973 58.7 53.6973 58.7C53.6973 58.7 53.7206 58.78 53.7673 58.94C53.8139 59.1 53.8573 59.3067 53.8973 59.56C53.9373 59.8067 53.9506 60.07 53.9373 60.35C53.9306 60.63 53.8706 60.8967 53.7573 61.15C53.6506 61.3967 53.4706 61.6 53.2173 61.76C52.9706 61.92 52.6239 62 52.1773 62C51.7306 62 51.3639 61.9167 51.0773 61.75C50.7906 61.5833 50.5639 61.37 50.3973 61.11C50.2373 60.8433 50.1206 60.5633 50.0473 60.27C49.9739 59.9767 49.9306 59.7 49.9173 59.44C49.9039 59.1733 49.9006 58.9567 49.9073 58.79C49.9206 58.6233 49.9273 58.54 49.9273 58.54ZM55.5104 62C55.5104 62 55.4671 62 55.3804 62C55.2937 62 55.1937 61.9867 55.0804 61.96C54.9737 61.9333 54.8771 61.88 54.7904 61.8C54.7037 61.72 54.6537 61.6033 54.6404 61.45C54.6337 61.3233 54.6204 61.1433 54.6004 60.91C54.5804 60.6767 54.5571 60.4233 54.5304 60.15C54.5104 59.87 54.4904 59.6067 54.4704 59.36C54.4504 59.1067 54.4337 58.9 54.4204 58.74C54.4071 58.58 54.4004 58.5 54.4004 58.5C54.4004 58.5 54.4037 58.4733 54.4104 58.42C54.4171 58.36 54.4404 58.2933 54.4804 58.22C54.5271 58.1467 54.6037 58.08 54.7104 58.02C54.8237 57.96 54.9804 57.9267 55.1804 57.92C55.3804 57.9133 55.5371 57.9333 55.6504 57.98C55.7637 58.0267 55.8437 58.0833 55.8904 58.15C55.9437 58.21 55.9737 58.2667 55.9804 58.32C55.9937 58.3667 56.0004 58.39 56.0004 58.39C56.0004 58.39 56.0604 58.36 56.1804 58.3C56.3071 58.2333 56.4671 58.1667 56.6604 58.1C56.8604 58.0333 57.0704 57.9933 57.2904 57.98C57.3237 57.98 57.3871 57.98 57.4804 57.98C57.5804 57.98 57.6871 58.0033 57.8004 58.05C57.9204 58.09 58.0371 58.17 58.1504 58.29C58.2704 58.41 58.3704 58.5867 58.4504 58.82C58.5304 59.0467 58.5771 59.3467 58.5904 59.72C58.6104 60.1867 58.6237 60.57 58.6304 60.87C58.6437 61.17 58.6337 61.4033 58.6004 61.57C58.5737 61.73 58.5071 61.8433 58.4004 61.91C58.3004 61.97 58.1404 62 57.9204 62C57.7071 62 57.5504 61.97 57.4504 61.91C57.3504 61.85 57.2871 61.78 57.2604 61.7C57.2337 61.6133 57.2204 61.5367 57.2204 61.47C57.2204 61.43 57.2271 61.3233 57.2404 61.15C57.2537 60.97 57.2637 60.7667 57.2704 60.54C57.2771 60.3067 57.2737 60.08 57.2604 59.86C57.2537 59.6333 57.2271 59.45 57.1804 59.31C57.1404 59.1633 57.0737 59.0933 56.9804 59.1C56.8671 59.1067 56.7604 59.15 56.6604 59.23C56.5671 59.3033 56.4837 59.39 56.4104 59.49C56.3371 59.5833 56.2804 59.6667 56.2404 59.74C56.2004 59.8067 56.1804 59.84 56.1804 59.84L56.2804 61.35C56.2804 61.35 56.2804 61.3833 56.2804 61.45C56.2804 61.5167 56.2604 61.5933 56.2204 61.68C56.1804 61.76 56.1037 61.8333 55.9904 61.9C55.8837 61.9667 55.7237 62 55.5104 62ZM59.1072 56.54C59.1005 56.3733 59.1505 56.24 59.2572 56.14C59.3639 56.0333 59.6005 55.97 59.9672 55.95C60.2139 55.9367 60.3939 55.9667 60.5072 56.04C60.6205 56.1133 60.6905 56.19 60.7172 56.27C60.7505 56.3433 60.7672 56.38 60.7672 56.38L60.8272 57.27C60.8272 57.27 60.8805 57.27 60.9872 57.27C61.1005 57.27 61.2272 57.2833 61.3672 57.31C61.5139 57.33 61.6405 57.3733 61.7472 57.44C61.8605 57.5067 61.9172 57.61 61.9172 57.75C61.9172 57.89 61.8639 57.9933 61.7572 58.06C61.6505 58.1267 61.5272 58.1733 61.3872 58.2C61.2472 58.22 61.1205 58.23 61.0072 58.23C60.9005 58.23 60.8472 58.23 60.8472 58.23C60.8472 58.23 60.8472 58.3067 60.8472 58.46C60.8539 58.6067 60.8572 58.8 60.8572 59.04C60.8572 59.2733 60.8605 59.5233 60.8672 59.79C60.8739 60.0567 60.8772 60.3133 60.8772 60.56C60.8772 60.8 60.8772 61.0033 60.8772 61.17C60.8839 61.33 60.8872 61.4233 60.8872 61.45C60.8872 61.4967 60.8705 61.5633 60.8372 61.65C60.8105 61.7367 60.7339 61.8167 60.6072 61.89C60.4872 61.9633 60.2872 62 60.0072 62C59.8005 62 59.6405 61.9767 59.5272 61.93C59.4139 61.8767 59.3305 61.82 59.2772 61.76C59.2305 61.6933 59.2039 61.6367 59.1972 61.59C59.1905 61.5367 59.1872 61.51 59.1872 61.51L59.1072 56.54Z" fill="white" fill-opacity="0.5"/>
</svg>
