<svg width="50" height="65" viewBox="0 0 50 65" fill="none" xmlns="http://www.w3.org/2000/svg">
<path opacity="0.4" d="M14.0833 45.8333H35.9167C41.6667 45.8333 43.9583 42.3125 44.2292 38.0208L45.3125 20.8125C45.38 19.7455 45.228 18.676 44.8658 17.67C44.5036 16.6641 43.9389 15.7431 43.2067 14.9641C42.4745 14.185 41.5903 13.5644 40.6088 13.1406C39.6272 12.7167 38.5691 12.4987 37.5 12.5C36.2292 12.5 35.0625 11.7708 34.4792 10.6458L32.9792 7.62501C32.0208 5.72917 29.5208 4.16667 27.3958 4.16667H22.625C20.4792 4.16667 17.9792 5.72917 17.0208 7.62501L15.5208 10.6458C14.9375 11.7708 13.7708 12.5 12.5 12.5C7.97916 12.5 4.39583 16.3125 4.68749 20.8125L5.77083 38.0208C6.02083 42.3125 8.33333 45.8333 14.0833 45.8333Z" fill="white"/>
<path d="M28.125 18.2292H21.875C21.0208 18.2292 20.3125 17.5208 20.3125 16.6667C20.3125 15.8125 21.0208 15.1042 21.875 15.1042H28.125C28.9792 15.1042 29.6875 15.8125 29.6875 16.6667C29.6875 17.5208 28.9792 18.2292 28.125 18.2292ZM25.0021 37.7729C26.8697 37.7729 28.6607 37.031 29.9813 35.7105C31.3019 34.3899 32.0437 32.5988 32.0437 30.7313C32.0437 28.8637 31.3019 27.0726 29.9813 25.752C28.6607 24.4315 26.8697 23.6896 25.0021 23.6896C23.1345 23.6896 21.3434 24.4315 20.0229 25.752C18.7023 27.0726 17.9604 28.8637 17.9604 30.7313C17.9604 32.5988 18.7023 34.3899 20.0229 35.7105C21.3434 37.031 23.1345 37.7729 25.0021 37.7729Z" fill="white"/>
<path d="M2.24 56.6C2.23333 56.6 2.24333 56.5633 2.27 56.49C2.30333 56.41 2.37667 56.3333 2.49 56.26C2.60333 56.1867 2.79 56.1467 3.05 56.14C3.28333 56.1333 3.46 56.1633 3.58 56.23C3.7 56.29 3.78 56.35 3.82 56.41C3.86667 56.47 3.89 56.5 3.89 56.5C3.89 56.5 3.92667 56.5867 4 56.76C4.07333 56.9333 4.17333 57.1633 4.3 57.45C4.42667 57.73 4.56667 58.0433 4.72 58.39C4.87333 58.7367 5.02667 59.09 5.18 59.45C5.34 59.8033 5.48667 60.1367 5.62 60.45C5.76 60.7567 5.87667 61.0167 5.97 61.23C6.06333 61.4367 6.12333 61.5667 6.15 61.62C6.21 61.7467 6.24333 61.8367 6.25 61.89C6.25667 61.9433 6.25333 61.98 6.24 62C6.23333 62.0133 6.23 62.0233 6.23 62.03C6.18333 62.1233 6.09 62.2033 5.95 62.27C5.81667 62.3433 5.65333 62.3833 5.46 62.39C5.19333 62.3967 5 62.3667 4.88 62.3C4.76 62.24 4.68 62.1767 4.64 62.11C4.60667 62.05 4.59333 62.0233 4.6 62.03C4.6 62.03 4.56333 61.9533 4.49 61.8C4.42333 61.6467 4.34333 61.4633 4.25 61.25C4.15667 61.03 4.07 60.83 3.99 60.65C3.99 60.65 3.94333 60.65 3.85 60.65C3.76333 60.65 3.66 60.65 3.54 60.65C3.42 60.65 3.31333 60.65 3.22 60.65C3.13333 60.65 3.09 60.65 3.09 60.65C3.06333 60.7433 3.03667 60.86 3.01 61C2.98333 61.1333 2.96 61.2533 2.94 61.36C2.92 61.4667 2.91 61.52 2.91 61.52C2.91 61.52 2.89333 61.56 2.86 61.64C2.83333 61.72 2.75667 61.8 2.63 61.88C2.50333 61.96 2.29333 62 2 62C1.78 62 1.61333 61.9767 1.5 61.93C1.39333 61.8767 1.32 61.8167 1.28 61.75C1.24667 61.6833 1.23 61.6267 1.23 61.58C1.23 61.5267 1.23 61.5 1.23 61.5C1.24333 61.4333 1.27 61.2967 1.31 61.09C1.35667 60.8767 1.41 60.6233 1.47 60.33C1.53667 60.03 1.60333 59.7133 1.67 59.38C1.74333 59.0467 1.81333 58.7167 1.88 58.39C1.94667 58.0633 2.00667 57.7667 2.06 57.5C2.11333 57.2267 2.15667 57.01 2.19 56.85C2.22333 56.6833 2.24 56.6 2.24 56.6ZM3.29 58.18C3.28333 58.2067 3.27667 58.26 3.27 58.34L3.23 58.62C3.21667 58.7733 3.2 58.9367 3.18 59.11C3.16 59.2833 3.14 59.4467 3.12 59.6C3.10667 59.68 3.09667 59.73 3.09 59.75H3.22C3.3 59.75 3.38667 59.7467 3.48 59.74C3.57333 59.7333 3.65667 59.73 3.73 59.73C3.70333 59.6767 3.68 59.61 3.66 59.53C3.64667 59.4433 3.63 59.3633 3.61 59.29C3.57 59.1367 3.52333 58.9767 3.47 58.81C3.42333 58.6433 3.38 58.4867 3.34 58.34C3.32 58.26 3.30333 58.2067 3.29 58.18ZM6.90109 61.49C6.88109 61.2633 6.86776 60.98 6.86109 60.64C6.85443 60.2933 6.85109 59.9233 6.85109 59.53C6.85109 59.1367 6.85443 58.7567 6.86109 58.39C6.87443 58.0167 6.88776 57.6867 6.90109 57.4C6.91443 57.1133 6.92776 56.9067 6.94109 56.78C6.96109 56.62 7.01776 56.5 7.11109 56.42C7.20443 56.3333 7.30776 56.2733 7.42109 56.24C7.54109 56.2067 7.64109 56.19 7.72109 56.19C7.80776 56.1833 7.85109 56.18 7.85109 56.18C7.85109 56.18 7.89109 56.1867 7.97109 56.2C8.05776 56.2067 8.15109 56.2233 8.25109 56.25C8.35109 56.2767 8.42109 56.3233 8.46109 56.39C8.54776 56.5233 8.58776 56.6533 8.58109 56.78C8.58109 56.9 8.57443 57.0567 8.56109 57.25C8.52109 57.75 8.49776 58.24 8.49109 58.72C8.48443 59.2 8.48443 59.6367 8.49109 60.03C8.49776 60.4233 8.50443 60.7367 8.51109 60.97C8.52443 61.2033 8.53109 61.32 8.53109 61.32C8.53109 61.32 8.52776 61.3567 8.52109 61.43C8.52109 61.4967 8.50109 61.5733 8.46109 61.66C8.42109 61.7467 8.34443 61.8267 8.23109 61.9C8.11776 61.9667 7.95109 62 7.73109 62C7.51109 62 7.34109 61.9767 7.22109 61.93C7.10776 61.8767 7.02776 61.8167 6.98109 61.75C6.94109 61.6767 6.91776 61.6167 6.91109 61.57C6.90443 61.5167 6.90109 61.49 6.90109 61.49ZM12.3229 61.35C12.2962 60.9567 12.2662 60.5467 12.2329 60.12C12.1996 59.6867 12.1662 59.2733 12.1329 58.88C12.1062 58.4867 12.0829 58.1533 12.0629 57.88C12.0429 57.6 12.0262 57.42 12.0129 57.34C11.9929 57.1867 11.9996 57.0833 12.0329 57.03C12.0729 56.97 12.0929 56.94 12.0929 56.94C12.0929 56.94 12.0696 56.9167 12.0229 56.87C11.9762 56.8167 11.9529 56.76 11.9529 56.7C11.9529 56.5933 12.0162 56.5067 12.1429 56.44C12.2762 56.3733 12.4262 56.3233 12.5929 56.29C12.7596 56.2567 12.9062 56.2333 13.0329 56.22C13.1662 56.2067 13.2329 56.2 13.2329 56.2C13.2329 56.2 13.2996 56.1967 13.4329 56.19C13.5662 56.1833 13.7362 56.19 13.9429 56.21C14.1562 56.23 14.3829 56.2833 14.6229 56.37C14.8696 56.45 15.1029 56.58 15.3229 56.76C15.5496 56.94 15.7396 57.1867 15.8929 57.5C16.0462 57.8067 16.1396 58.2 16.1729 58.68C16.2129 59.2467 16.1862 59.7233 16.0929 60.11C16.0062 60.4967 15.8729 60.8133 15.6929 61.06C15.5196 61.3 15.3196 61.4867 15.0929 61.62C14.8662 61.7533 14.6296 61.8467 14.3829 61.9C14.1429 61.9467 13.9129 61.9767 13.6929 61.99C13.4796 61.9967 13.2929 62 13.1329 62C12.8996 62 12.7229 61.9667 12.6029 61.9C12.4896 61.8333 12.4129 61.76 12.3729 61.68C12.3396 61.5933 12.3229 61.5167 12.3229 61.45C12.3229 61.3833 12.3229 61.35 12.3229 61.35ZM13.3929 57.1L13.8329 61.15C13.8329 61.15 13.8629 61.1467 13.9229 61.14C13.9829 61.1333 14.0562 61.1033 14.1429 61.05C14.2362 60.9967 14.3229 60.9 14.4029 60.76C14.4896 60.62 14.5562 60.4233 14.6029 60.17C14.6496 59.91 14.6596 59.5733 14.6329 59.16C14.6062 58.64 14.5496 58.2367 14.4629 57.95C14.3829 57.6567 14.2829 57.4467 14.1629 57.32C14.0496 57.1933 13.9262 57.12 13.7929 57.1C13.6596 57.08 13.5262 57.08 13.3929 57.1ZM20.6699 58.98C20.6499 59.3133 20.5566 59.5833 20.3899 59.79C20.2233 59.99 20.0199 60.1433 19.7799 60.25C19.5466 60.35 19.3133 60.42 19.0799 60.46C18.8466 60.4933 18.6499 60.51 18.4899 60.51C18.3366 60.51 18.2599 60.51 18.2599 60.51C18.2999 60.7433 18.3566 60.91 18.4299 61.01C18.5033 61.11 18.5833 61.1667 18.6699 61.18C18.7633 61.1933 18.8499 61.1867 18.9299 61.16C19.0099 61.1267 19.0733 61.09 19.1199 61.05C19.1733 61.01 19.1999 60.99 19.1999 60.99C19.1999 60.99 19.2366 60.96 19.3099 60.9C19.3833 60.84 19.4966 60.7833 19.6499 60.73C19.8099 60.67 20.0099 60.64 20.2499 60.64C20.5233 60.64 20.7066 60.6767 20.7999 60.75C20.8999 60.8167 20.9466 60.8967 20.9399 60.99C20.9399 61.0767 20.9199 61.1567 20.8799 61.23C20.8466 61.2967 20.8299 61.33 20.8299 61.33C20.8299 61.33 20.7999 61.3633 20.7399 61.43C20.6866 61.49 20.5866 61.5633 20.4399 61.65C20.2933 61.7367 20.0899 61.8167 19.8299 61.89C19.5699 61.9567 19.2366 61.9933 18.8299 62C18.4366 62.0067 18.1066 61.9533 17.8399 61.84C17.5733 61.7267 17.3533 61.58 17.1799 61.4C17.0066 61.2133 16.8733 61.02 16.7799 60.82C16.6933 60.6133 16.6299 60.4233 16.5899 60.25C16.5566 60.07 16.5399 59.93 16.5399 59.83C16.5399 59.73 16.5466 59.6 16.5599 59.44C16.5799 59.28 16.6233 59.1133 16.6899 58.94C16.7633 58.76 16.8733 58.59 17.0199 58.43C17.1666 58.27 17.3666 58.14 17.6199 58.04C17.8799 57.94 18.2099 57.8867 18.6099 57.88C19.1099 57.8733 19.4999 57.9167 19.7799 58.01C20.0599 58.1033 20.2633 58.2167 20.3899 58.35C20.5166 58.4833 20.5933 58.61 20.6199 58.73C20.6533 58.85 20.6699 58.9333 20.6699 58.98ZM18.1199 59.82C18.5266 59.7867 18.8299 59.7 19.0299 59.56C19.2299 59.42 19.3466 59.2633 19.3799 59.09C19.4133 58.9167 19.3799 58.77 19.2799 58.65C19.1866 58.5233 19.0433 58.4667 18.8499 58.48C18.6566 58.4867 18.5099 58.56 18.4099 58.7C18.3099 58.8333 18.2399 58.99 18.1999 59.17C18.1599 59.3433 18.1366 59.4967 18.1299 59.63C18.1233 59.7567 18.1199 59.82 18.1199 59.82ZM21.4744 56.54C21.4677 56.3733 21.5177 56.24 21.6244 56.14C21.731 56.0333 21.9677 55.97 22.3344 55.95C22.581 55.9367 22.761 55.9667 22.8744 56.04C22.9877 56.1133 23.0577 56.19 23.0844 56.27C23.1177 56.3433 23.1344 56.38 23.1344 56.38L23.1944 57.27C23.1944 57.27 23.2477 57.27 23.3544 57.27C23.4677 57.27 23.5944 57.2833 23.7344 57.31C23.881 57.33 24.0077 57.3733 24.1144 57.44C24.2277 57.5067 24.2844 57.61 24.2844 57.75C24.2844 57.89 24.231 57.9933 24.1244 58.06C24.0177 58.1267 23.8944 58.1733 23.7544 58.2C23.6144 58.22 23.4877 58.23 23.3744 58.23C23.2677 58.23 23.2144 58.23 23.2144 58.23C23.2144 58.23 23.2144 58.3067 23.2144 58.46C23.221 58.6067 23.2244 58.8 23.2244 59.04C23.2244 59.2733 23.2277 59.5233 23.2344 59.79C23.241 60.0567 23.2444 60.3133 23.2444 60.56C23.2444 60.8 23.2444 61.0033 23.2444 61.17C23.251 61.33 23.2544 61.4233 23.2544 61.45C23.2544 61.4967 23.2377 61.5633 23.2044 61.65C23.1777 61.7367 23.101 61.8167 22.9744 61.89C22.8544 61.9633 22.6544 62 22.3744 62C22.1677 62 22.0077 61.9767 21.8944 61.93C21.781 61.8767 21.6977 61.82 21.6444 61.76C21.5977 61.6933 21.571 61.6367 21.5644 61.59C21.5577 61.5367 21.5544 61.51 21.5544 61.51L21.4744 56.54ZM28.7461 58.98C28.7261 59.3133 28.6328 59.5833 28.4661 59.79C28.2994 59.99 28.0961 60.1433 27.8561 60.25C27.6228 60.35 27.3894 60.42 27.1561 60.46C26.9228 60.4933 26.7261 60.51 26.5661 60.51C26.4128 60.51 26.3361 60.51 26.3361 60.51C26.3761 60.7433 26.4328 60.91 26.5061 61.01C26.5794 61.11 26.6594 61.1667 26.7461 61.18C26.8394 61.1933 26.9261 61.1867 27.0061 61.16C27.0861 61.1267 27.1494 61.09 27.1961 61.05C27.2494 61.01 27.2761 60.99 27.2761 60.99C27.2761 60.99 27.3128 60.96 27.3861 60.9C27.4594 60.84 27.5728 60.7833 27.7261 60.73C27.8861 60.67 28.0861 60.64 28.3261 60.64C28.5994 60.64 28.7828 60.6767 28.8761 60.75C28.9761 60.8167 29.0228 60.8967 29.0161 60.99C29.0161 61.0767 28.9961 61.1567 28.9561 61.23C28.9228 61.2967 28.9061 61.33 28.9061 61.33C28.9061 61.33 28.8761 61.3633 28.8161 61.43C28.7628 61.49 28.6628 61.5633 28.5161 61.65C28.3694 61.7367 28.1661 61.8167 27.9061 61.89C27.6461 61.9567 27.3128 61.9933 26.9061 62C26.5128 62.0067 26.1828 61.9533 25.9161 61.84C25.6494 61.7267 25.4294 61.58 25.2561 61.4C25.0828 61.2133 24.9494 61.02 24.8561 60.82C24.7694 60.6133 24.7061 60.4233 24.6661 60.25C24.6328 60.07 24.6161 59.93 24.6161 59.83C24.6161 59.73 24.6228 59.6 24.6361 59.44C24.6561 59.28 24.6994 59.1133 24.7661 58.94C24.8394 58.76 24.9494 58.59 25.0961 58.43C25.2428 58.27 25.4428 58.14 25.6961 58.04C25.9561 57.94 26.2861 57.8867 26.6861 57.88C27.1861 57.8733 27.5761 57.9167 27.8561 58.01C28.1361 58.1033 28.3394 58.2167 28.4661 58.35C28.5928 58.4833 28.6694 58.61 28.6961 58.73C28.7294 58.85 28.7461 58.9333 28.7461 58.98ZM26.1961 59.82C26.6028 59.7867 26.9061 59.7 27.1061 59.56C27.3061 59.42 27.4228 59.2633 27.4561 59.09C27.4894 58.9167 27.4561 58.77 27.3561 58.65C27.2628 58.5233 27.1194 58.4667 26.9261 58.48C26.7328 58.4867 26.5861 58.56 26.4861 58.7C26.3861 58.8333 26.3161 58.99 26.2761 59.17C26.2361 59.3433 26.2128 59.4967 26.2061 59.63C26.1994 59.7567 26.1961 59.82 26.1961 59.82ZM32.9005 59.72C32.6405 59.72 32.4505 59.69 32.3305 59.63C32.2172 59.5633 32.1439 59.4967 32.1105 59.43C32.0839 59.3633 32.0705 59.32 32.0705 59.3C32.0705 59.28 32.0572 59.24 32.0305 59.18C32.0105 59.12 31.9739 59.0633 31.9205 59.01C31.8672 58.95 31.7972 58.92 31.7105 58.92C31.6239 58.9133 31.5405 58.9733 31.4605 59.1C31.3805 59.2267 31.3139 59.38 31.2605 59.56C31.2072 59.7333 31.1739 59.9 31.1605 60.06C31.1539 60.22 31.1705 60.3833 31.2105 60.55C31.2572 60.7167 31.3239 60.8567 31.4105 60.97C31.4972 61.0767 31.6005 61.1333 31.7205 61.14C31.9005 61.1467 32.0105 61.12 32.0505 61.06C32.0905 60.9933 32.1105 60.96 32.1105 60.96C32.1105 60.96 32.1172 60.94 32.1305 60.9C32.1439 60.8533 32.1805 60.8033 32.2405 60.75C32.3072 60.6967 32.4105 60.6533 32.5505 60.62C32.6905 60.58 32.8905 60.5633 33.1505 60.57C33.4105 60.5767 33.5872 60.61 33.6805 60.67C33.7739 60.73 33.8205 60.7967 33.8205 60.87C33.8272 60.9433 33.8139 61.0067 33.7805 61.06C33.7472 61.1133 33.7305 61.14 33.7305 61.14C33.7305 61.14 33.6839 61.1833 33.5905 61.27C33.4972 61.3567 33.3605 61.4567 33.1805 61.57C33.0072 61.6833 32.7939 61.7833 32.5405 61.87C32.2872 61.9567 31.9972 62 31.6705 62C31.0239 62 30.5105 61.8233 30.1305 61.47C29.7572 61.1167 29.5572 60.6167 29.5305 59.97C29.5172 59.65 29.5739 59.3633 29.7005 59.11C29.8272 58.8567 29.9972 58.6433 30.2105 58.47C30.4239 58.29 30.6605 58.1533 30.9205 58.06C31.1805 57.96 31.4339 57.9033 31.6805 57.89C31.9339 57.8767 32.1739 57.9133 32.4005 58C32.6272 58.08 32.8305 58.19 33.0105 58.33C33.1972 58.47 33.3472 58.6167 33.4605 58.77C33.5739 58.9233 33.6372 59.0667 33.6505 59.2C33.6639 59.3267 33.6339 59.4267 33.5605 59.5C33.4939 59.5733 33.4072 59.6267 33.3005 59.66C33.2005 59.6867 33.1105 59.7033 33.0305 59.71C32.9505 59.7167 32.9072 59.72 32.9005 59.72ZM34.2771 56.54C34.2704 56.3733 34.3204 56.24 34.4271 56.14C34.5338 56.0333 34.7704 55.97 35.1371 55.95C35.3838 55.9367 35.5638 55.9667 35.6771 56.04C35.7904 56.1133 35.8604 56.19 35.8871 56.27C35.9204 56.3433 35.9371 56.38 35.9371 56.38L35.9971 57.27C35.9971 57.27 36.0504 57.27 36.1571 57.27C36.2704 57.27 36.3971 57.2833 36.5371 57.31C36.6838 57.33 36.8104 57.3733 36.9171 57.44C37.0304 57.5067 37.0871 57.61 37.0871 57.75C37.0871 57.89 37.0338 57.9933 36.9271 58.06C36.8204 58.1267 36.6971 58.1733 36.5571 58.2C36.4171 58.22 36.2904 58.23 36.1771 58.23C36.0704 58.23 36.0171 58.23 36.0171 58.23C36.0171 58.23 36.0171 58.3067 36.0171 58.46C36.0238 58.6067 36.0271 58.8 36.0271 59.04C36.0271 59.2733 36.0304 59.5233 36.0371 59.79C36.0438 60.0567 36.0471 60.3133 36.0471 60.56C36.0471 60.8 36.0471 61.0033 36.0471 61.17C36.0538 61.33 36.0571 61.4233 36.0571 61.45C36.0571 61.4967 36.0404 61.5633 36.0071 61.65C35.9804 61.7367 35.9038 61.8167 35.7771 61.89C35.6571 61.9633 35.4571 62 35.1771 62C34.9704 62 34.8104 61.9767 34.6971 61.93C34.5838 61.8767 34.5004 61.82 34.4471 61.76C34.4004 61.6933 34.3738 61.6367 34.3671 61.59C34.3604 61.5367 34.3571 61.51 34.3571 61.51L34.2771 56.54ZM38.4188 57.79C38.4188 57.79 38.3755 57.79 38.2888 57.79C38.2022 57.7833 38.0988 57.7633 37.9788 57.73C37.8655 57.69 37.7622 57.62 37.6688 57.52C37.5755 57.42 37.5255 57.27 37.5188 57.07C37.5122 56.87 37.5422 56.7233 37.6088 56.63C37.6755 56.53 37.7588 56.4633 37.8588 56.43C37.9588 56.39 38.0555 56.37 38.1488 56.37C38.2422 56.3633 38.3088 56.3567 38.3488 56.35C38.3888 56.3433 38.4555 56.35 38.5488 56.37C38.6422 56.3833 38.7388 56.42 38.8388 56.48C38.9388 56.5333 39.0222 56.6167 39.0888 56.73C39.1555 56.8367 39.1822 56.98 39.1688 57.16C39.1555 57.3333 39.1088 57.4667 39.0288 57.56C38.9555 57.6467 38.8688 57.7067 38.7688 57.74C38.6755 57.7667 38.5922 57.7833 38.5188 57.79C38.4522 57.79 38.4188 57.79 38.4188 57.79ZM38.0688 61.38L37.8288 59.1C37.8288 59.1 37.8122 59.0667 37.7788 59C37.7522 58.9267 37.7322 58.8767 37.7188 58.85C37.7122 58.83 37.6988 58.79 37.6788 58.73C37.6655 58.6633 37.6822 58.5933 37.7288 58.52C37.7822 58.4467 37.8955 58.3933 38.0688 58.36C38.2488 58.3267 38.4355 58.3167 38.6288 58.33C38.8222 58.3433 38.9922 58.4033 39.1388 58.51C39.2922 58.61 39.3855 58.7867 39.4188 59.04C39.4455 59.2267 39.4722 59.45 39.4988 59.71C39.5255 59.9633 39.5488 60.2133 39.5688 60.46C39.5955 60.7 39.6155 60.9033 39.6288 61.07C39.6488 61.23 39.6588 61.31 39.6588 61.31C39.6588 61.31 39.6622 61.3467 39.6688 61.42C39.6755 61.4867 39.6655 61.5667 39.6388 61.66C39.6122 61.7467 39.5455 61.8267 39.4388 61.9C39.3388 61.9667 39.1755 62 38.9488 62C38.7222 62 38.5488 61.97 38.4288 61.91C38.3088 61.8433 38.2222 61.77 38.1688 61.69C38.1222 61.61 38.0922 61.54 38.0788 61.48C38.0722 61.4133 38.0688 61.38 38.0688 61.38ZM42.3146 57.94C42.5613 57.92 42.7513 57.9467 42.8846 58.02C43.0179 58.0933 43.0979 58.1367 43.1246 58.15C43.1913 58.1833 43.2513 58.22 43.3046 58.26C43.3646 58.3 43.3946 58.32 43.3946 58.32C43.3946 58.32 43.4446 58.3367 43.5446 58.37C43.6446 58.4033 43.7613 58.4833 43.8946 58.61C44.0279 58.73 44.1513 58.92 44.2646 59.18C44.3779 59.44 44.4446 59.7933 44.4646 60.24C44.4779 60.54 44.4313 60.7933 44.3246 61C44.2179 61.2 44.0746 61.3667 43.8946 61.5C43.7213 61.6267 43.5313 61.7267 43.3246 61.8C43.1246 61.8667 42.9313 61.9133 42.7446 61.94C42.5646 61.9667 42.4146 61.9833 42.2946 61.99C42.1813 61.9967 42.1246 62 42.1246 62C42.1246 62 42.0579 62 41.9246 62C41.7979 62 41.6379 61.98 41.4446 61.94C41.2513 61.8933 41.0579 61.8067 40.8646 61.68C40.6779 61.5467 40.5213 61.3533 40.3946 61.1C40.2746 60.8467 40.2213 60.51 40.2346 60.09C40.2479 59.67 40.3246 59.3267 40.4646 59.06C40.6113 58.7867 40.7846 58.5733 40.9846 58.42C41.1913 58.2667 41.3946 58.1567 41.5946 58.09C41.8013 58.0233 41.9713 57.9833 42.1046 57.97C42.2446 57.95 42.3146 57.94 42.3146 57.94ZM42.3546 58.92C42.3546 58.92 42.3113 58.9733 42.2246 59.08C42.1446 59.1867 42.0613 59.3367 41.9746 59.53C41.8946 59.7233 41.8546 59.95 41.8546 60.21C41.8546 60.4633 41.8846 60.6633 41.9446 60.81C42.0046 60.9567 42.0679 61.0633 42.1346 61.13C42.2079 61.19 42.2646 61.22 42.3046 61.22C42.3446 61.22 42.4079 61.2033 42.4946 61.17C42.5879 61.13 42.6713 61.0433 42.7446 60.91C42.8179 60.7767 42.8513 60.5667 42.8446 60.28C42.8379 60.04 42.8113 59.8467 42.7646 59.7C42.7246 59.5533 42.6679 59.4233 42.5946 59.31C42.5279 59.19 42.4479 59.06 42.3546 58.92ZM45.9733 62C45.9733 62 45.9299 62 45.8433 62C45.7566 62 45.6566 61.9867 45.5433 61.96C45.4366 61.9333 45.3399 61.88 45.2533 61.8C45.1666 61.72 45.1166 61.6033 45.1033 61.45C45.0966 61.3233 45.0833 61.1433 45.0633 60.91C45.0433 60.6767 45.0199 60.4233 44.9933 60.15C44.9733 59.87 44.9533 59.6067 44.9333 59.36C44.9133 59.1067 44.8966 58.9 44.8833 58.74C44.8699 58.58 44.8633 58.5 44.8633 58.5C44.8633 58.5 44.8666 58.4733 44.8733 58.42C44.8799 58.36 44.9033 58.2933 44.9433 58.22C44.9899 58.1467 45.0666 58.08 45.1733 58.02C45.2866 57.96 45.4433 57.9267 45.6433 57.92C45.8433 57.9133 45.9999 57.9333 46.1133 57.98C46.2266 58.0267 46.3066 58.0833 46.3533 58.15C46.4066 58.21 46.4366 58.2667 46.4433 58.32C46.4566 58.3667 46.4633 58.39 46.4633 58.39C46.4633 58.39 46.5233 58.36 46.6433 58.3C46.7699 58.2333 46.9299 58.1667 47.1233 58.1C47.3233 58.0333 47.5333 57.9933 47.7533 57.98C47.7866 57.98 47.8499 57.98 47.9433 57.98C48.0433 57.98 48.1499 58.0033 48.2633 58.05C48.3833 58.09 48.4999 58.17 48.6133 58.29C48.7333 58.41 48.8333 58.5867 48.9133 58.82C48.9933 59.0467 49.0399 59.3467 49.0533 59.72C49.0733 60.1867 49.0866 60.57 49.0933 60.87C49.1066 61.17 49.0966 61.4033 49.0633 61.57C49.0366 61.73 48.9699 61.8433 48.8633 61.91C48.7633 61.97 48.6033 62 48.3833 62C48.1699 62 48.0133 61.97 47.9133 61.91C47.8133 61.85 47.7499 61.78 47.7233 61.7C47.6966 61.6133 47.6833 61.5367 47.6833 61.47C47.6833 61.43 47.6899 61.3233 47.7033 61.15C47.7166 60.97 47.7266 60.7667 47.7333 60.54C47.7399 60.3067 47.7366 60.08 47.7233 59.86C47.7166 59.6333 47.6899 59.45 47.6433 59.31C47.6033 59.1633 47.5366 59.0933 47.4433 59.1C47.3299 59.1067 47.2233 59.15 47.1233 59.23C47.0299 59.3033 46.9466 59.39 46.8733 59.49C46.7999 59.5833 46.7433 59.6667 46.7033 59.74C46.6633 59.8067 46.6433 59.84 46.6433 59.84L46.7433 61.35C46.7433 61.35 46.7433 61.3833 46.7433 61.45C46.7433 61.5167 46.7233 61.5933 46.6833 61.68C46.6433 61.76 46.5666 61.8333 46.4533 61.9C46.3466 61.9667 46.1866 62 45.9733 62Z" fill="white" fill-opacity="0.5"/>
</svg>
