<svg width="93" height="100" viewBox="0 0 93 100" fill="none" xmlns="http://www.w3.org/2000/svg">
<path d="M64.2785 28.7137L24.4474 68.5488C22.5874 70.4088 19.4099 69.9825 18.2861 67.6188C16.1988 63.3331 15.1123 58.6294 15.1086 53.8625C15.0311 32.4725 36.7311 14.1825 44.0936 8.56375C45.5274 7.47875 47.4649 7.47875 48.8599 8.56375C52.2311 11.1213 58.5474 16.43 64.4761 23.405C65.7936 24.955 65.7161 27.28 64.2824 28.7137H64.2785Z" fill="#B6EADA"/>
<path opacity="0.4" d="M77.8875 53.9012C77.8875 71.1837 63.8212 85.25 46.5 85.25C39.7907 85.2641 33.2553 83.1173 27.8612 79.1275C25.9625 77.7325 25.8075 74.9425 27.4737 73.2762L66.495 34.255C68.3162 32.4337 71.3775 32.8212 72.6175 35.0687C75.795 40.92 77.9262 47.275 77.8875 53.9012Z" fill="#B6EADA"/>
<path opacity="0.4" d="M45.88 96.72C52.7285 96.72 58.28 91.1685 58.28 84.32C58.28 77.4715 52.7285 71.92 45.88 71.92C39.0315 71.92 33.48 77.4715 33.48 84.32C33.48 91.1685 39.0315 96.72 45.88 96.72Z" fill="white"/>
<path d="M50.84 83.39H46.81V79.36C46.81 78.8516 46.3884 78.43 45.88 78.43C45.3716 78.43 44.95 78.8516 44.95 79.36V83.39H40.92C40.4116 83.39 39.99 83.8116 39.99 84.32C39.99 84.8284 40.4116 85.25 40.92 85.25H44.95V89.28C44.95 89.7884 45.3716 90.21 45.88 90.21C46.3884 90.21 46.81 89.7884 46.81 89.28V85.25H50.84C51.3484 85.25 51.77 84.8284 51.77 84.32C51.77 83.8116 51.3484 83.39 50.84 83.39Z" fill="white"/>
</svg>
